<svg width="40" height="41" viewBox="0 0 40 41" fill="none" xmlns="http://www.w3.org/2000/svg">
<rect y="0.0168457" width="40" height="40.1354" rx="11.1782" fill="#3692FF"/>
<path d="M19.3139 11.1911C19.8132 12.9166 18.493 14.8179 16.9797 15.2588C15.4663 15.6996 13.3989 14.7852 12.8996 13.0598C12.4003 11.3343 13.4485 8.94351 14.9618 8.50264C16.9797 7.91476 18.8146 9.4656 19.3139 11.1911Z" fill="#222327"/>
<path d="M20.1461 11.1911C19.6468 12.9166 20.967 14.8179 22.4803 15.2588C23.9936 15.6996 26.0611 14.7852 26.5604 13.0598C27.0597 11.3343 26.0115 8.94351 24.4982 8.50264C22.4803 7.91476 20.6454 9.4656 20.1461 11.1911Z" fill="#222327"/>
<path d="M29.5172 23.7967C29.5172 28.1855 25.2138 29.8169 19.3437 29.8169C13.4736 29.8169 9.26758 28.1855 9.26758 23.7967C9.26758 18.6916 13.4736 14.1644 19.3437 14.1644C25.2138 14.1644 29.5172 18.3063 29.5172 23.7967Z" fill="#F3D6DD"/>
<path d="M17.4003 22.9301C17.4003 24.3675 16.4777 25.9444 15.1884 25.9444C13.8991 25.9444 11.8164 24.7732 11.8164 22.626C11.8164 20.609 14.0664 19.8916 16.3913 20.2599C17.8163 20.4857 17.4003 21.4927 17.4003 22.9301Z" fill="#222327"/>
<path d="M16.3221 22.785C16.3221 23.0007 16.2573 23.1754 15.933 23.1754C15.6088 23.1754 15.5439 23.0007 15.5439 22.785C15.5439 22.5694 15.6736 22.3947 15.933 22.3947C16.1924 22.3947 16.3221 22.5694 16.3221 22.785Z" fill="white"/>
<path d="M21.3223 22.9302C21.3223 24.3676 22.2449 25.9445 23.5342 25.9445C24.8235 25.9445 26.9062 24.7733 26.9062 22.6261C26.9062 20.6091 24.6563 19.8917 22.3313 20.2601C20.9064 20.4858 21.3223 21.4928 21.3223 22.9302Z" fill="#222327"/>
<path d="M22.4015 22.785C22.4015 23.0007 22.4664 23.1754 22.7906 23.1754C23.1148 23.1754 23.1797 23.0007 23.1797 22.785C23.1797 22.5694 23.05 22.3947 22.7906 22.3947C22.5312 22.3947 22.4015 22.5694 22.4015 22.785Z" fill="white"/>
<path d="M17.8754 25.0092C17.7969 24.8946 17.6404 24.8654 17.5258 24.9439C17.4112 25.0224 17.382 25.1789 17.4605 25.2935L17.8754 25.0092ZM19.3179 24.6998L19.5559 24.6183C19.521 24.5166 19.4254 24.4483 19.3179 24.4483C19.2104 24.4483 19.1148 24.5166 19.08 24.6183L19.3179 24.6998ZM21.1754 25.2935C21.2539 25.1789 21.2246 25.0224 21.1101 24.9439C20.9955 24.8654 20.8389 24.8946 20.7604 25.0092L21.1754 25.2935ZM17.4605 25.2935C17.53 25.3949 17.6562 25.5308 17.8254 25.6431C17.9962 25.7564 18.2244 25.8544 18.493 25.8544V25.3514C18.349 25.3514 18.2163 25.2988 18.1035 25.224C17.9891 25.1481 17.9091 25.0583 17.8754 25.0092L17.4605 25.2935ZM18.493 25.8544C18.8235 25.8544 19.0693 25.6186 19.2223 25.4156C19.3838 25.2013 19.498 24.9502 19.5559 24.7813L19.08 24.6183C19.0347 24.7505 18.9427 24.9509 18.8206 25.1128C18.69 25.2861 18.5749 25.3514 18.493 25.3514V25.8544ZM19.08 24.7813C19.1379 24.9502 19.252 25.2013 19.4136 25.4156C19.5666 25.6186 19.8124 25.8544 20.1429 25.8544V25.3514C20.061 25.3514 19.9459 25.2861 19.8153 25.1128C19.6932 24.9509 19.6011 24.7505 19.5559 24.6183L19.08 24.7813ZM20.1429 25.8544C20.4115 25.8544 20.6397 25.7564 20.8105 25.6431C20.9797 25.5308 21.1059 25.3949 21.1754 25.2935L20.7604 25.0092C20.7268 25.0583 20.6467 25.1481 20.5324 25.224C20.4196 25.2988 20.2868 25.3514 20.1429 25.3514V25.8544Z" fill="#222327"/>
<path d="M20.6913 24.4678C20.6913 24.677 19.7493 24.9433 19.4322 25.027C19.3645 25.0449 19.2946 25.0449 19.2268 25.027C18.9098 24.9433 17.9678 24.677 17.9678 24.4678C17.9678 24.2162 18.7207 23.9473 19.3295 23.9473C19.9384 23.9473 20.6913 24.2162 20.6913 24.4678Z" fill="#222327"/>
<path d="M19.1665 17.7768C15.3823 17.7768 13.9916 16.4473 13.7666 15.6697L15.5666 13.7132L19.4665 13.0359L24.8664 15.6697C24.5414 16.2968 22.9549 17.7768 19.1665 17.7768Z" fill="#222327"/>
<path fill-rule="evenodd" clip-rule="evenodd" d="M19.6898 31.9995C27.5098 31.9995 33.2427 29.7956 33.2427 23.8663C33.2427 16.4488 27.5098 10.8531 19.6898 10.8531C11.8698 10.8531 6.2666 16.9693 6.2666 23.8663C6.2666 29.7956 11.8698 31.9995 19.6898 31.9995ZM19.3823 29.7225C25.1345 29.7225 29.3515 28.1085 29.3515 23.7664C29.3515 18.3345 25.1345 14.2368 19.3823 14.2368C13.6301 14.2368 9.50854 18.7157 9.50854 23.7664C9.50854 28.1085 13.6301 29.7225 19.3823 29.7225Z" fill="white"/>
</svg>
